<svg width="891" height="773" viewBox="0 0 891 773" fill="none" xmlns="http://www.w3.org/2000/svg">
<g id="bird_undraw">
<g id="All">
<g id="bird 1">
<g clip-path="url(#clip0)">
<g id="body">
<path id="body_2" d="M445.277 669.71C537.082 669.71 611.505 595.287 611.505 503.482C611.505 411.677 537.082 337.254 445.277 337.254C353.472 337.254 279.049 411.677 279.049 503.482C279.049 595.287 353.472 669.71 445.277 669.71Z" fill="#3F3D56"/>
<path id="nose" d="M437.943 505.926L423.276 569.484L447.721 545.039L437.943 505.926Z" fill="#FF6584"/>
<path id="Vector" d="M325.495 564.595C336.295 564.595 345.051 555.84 345.051 545.039C345.051 534.238 336.295 525.483 325.495 525.483C314.694 525.483 305.939 534.238 305.939 545.039C305.939 555.84 314.694 564.595 325.495 564.595Z" fill="#FF6584"/>
<path id="Vector_2" d="M550.392 564.595C561.192 564.595 569.948 555.84 569.948 545.039C569.948 534.238 561.192 525.483 550.392 525.483C539.591 525.483 530.836 534.238 530.836 545.039C530.836 555.84 539.591 564.595 550.392 564.595Z" fill="#FF6584"/>
<path id="Vector_3" d="M472.631 516.826C476.759 511.883 481.922 507.908 487.756 505.179C493.589 502.451 499.95 501.037 506.39 501.037C512.83 501.037 519.191 502.451 525.025 505.179C530.858 507.908 536.021 511.883 540.15 516.826C547.214 510.082 552.096 501.377 554.168 491.833C556.24 482.289 555.406 472.343 551.773 463.278C548.141 454.212 541.877 446.442 533.788 440.969C525.699 435.496 516.157 432.571 506.39 432.571C496.624 432.571 487.081 435.496 478.993 440.969C470.904 446.442 464.64 454.212 461.007 463.278C457.375 472.343 456.541 482.289 458.612 491.833C460.684 501.377 465.567 510.082 472.631 516.826Z" fill="white"/>
<path id="Vector_4" d="M340.626 516.826C344.754 511.883 349.918 507.908 355.751 505.179C361.584 502.451 367.946 501.037 374.385 501.037C380.825 501.037 387.187 502.451 393.02 505.179C398.853 507.908 404.017 511.883 408.145 516.826C415.209 510.082 420.092 501.377 422.163 491.833C424.235 482.289 423.401 472.343 419.769 463.278C416.136 454.212 409.872 446.442 401.783 440.969C393.694 435.496 384.152 432.571 374.385 432.571C364.619 432.571 355.077 435.496 346.988 440.969C338.899 446.442 332.635 454.212 329.002 463.278C325.37 472.343 324.536 482.289 326.607 491.833C328.679 501.377 333.562 510.082 340.626 516.826Z" fill="white"/>
<g id="looks">
<g id="look2" filter="url(#filter0_d)">
<path d="M489.707 481.632C498.996 481.632 506.525 474.102 506.525 464.814C506.525 455.526 498.996 447.996 489.707 447.996C480.419 447.996 472.889 455.526 472.889 464.814C472.889 474.102 480.419 481.632 489.707 481.632Z" fill="#333333"/>
<path d="M506.025 464.814C506.025 473.826 498.719 481.132 489.707 481.132C480.695 481.132 473.389 473.826 473.389 464.814C473.389 455.802 480.695 448.496 489.707 448.496C498.719 448.496 506.025 455.802 506.025 464.814Z" stroke="#333333"/>
</g>
<g id="look2_2" filter="url(#filter1_d)">
<path d="M361.818 481.636C371.106 481.636 378.636 474.106 378.636 464.818C378.636 455.53 371.106 448 361.818 448C352.53 448 345 455.53 345 464.818C345 474.106 352.53 481.636 361.818 481.636Z" fill="#333333"/>
<path d="M378.136 464.818C378.136 473.83 370.83 481.136 361.818 481.136C352.806 481.136 345.5 473.83 345.5 464.818C345.5 455.806 352.806 448.5 361.818 448.5C370.83 448.5 378.136 455.806 378.136 464.818Z" stroke="#333333"/>
</g>
</g>
<path id="hair" d="M447.721 325.031C443.16 325.031 439.137 328.574 436.447 334.016C434.075 325.833 429.094 320.142 423.276 320.142C422.881 320.181 422.488 320.247 422.102 320.339C419.866 311.602 414.668 305.475 408.609 305.475C400.508 305.475 393.942 316.419 393.942 329.92C393.942 343.421 400.508 354.365 408.609 354.365C409.004 354.326 409.397 354.26 409.783 354.168C412.019 362.905 417.217 369.033 423.276 369.033C427.837 369.033 431.861 365.49 434.551 360.048C436.922 368.231 441.904 373.922 447.721 373.922C455.822 373.922 462.389 362.977 462.389 349.476C462.389 335.976 455.822 325.031 447.721 325.031Z" fill="#3F3D56"/>
</g>
<path id="Vector_5" d="M890.772 763.25L255.263 772.831L3 728.121H396.817L890.772 763.25Z" fill="#E6E6E6"/>
<path id="Vector_6" d="M734.822 203.32C790.968 203.32 836.482 157.806 836.482 101.66C836.482 45.5148 790.968 0 734.822 0C678.677 0 633.162 45.5148 633.162 101.66C633.162 157.806 678.677 203.32 734.822 203.32Z" fill="#FF6584"/>
<path id="Vector_7" d="M182.84 733.435C182.84 733.435 184.327 702.276 214.812 705.898L182.84 733.435Z" fill="#3F3D56"/>
<path id="Vector_8" d="M174.227 703.784C182.653 703.784 189.484 696.953 189.484 688.526C189.484 680.1 182.653 673.269 174.227 673.269C165.801 673.269 158.97 680.1 158.97 688.526C158.97 696.953 165.801 703.784 174.227 703.784Z" fill="#6C63FF"/>
<path id="Vector_9" d="M176.051 714.218H171.744V744.365H176.051V714.218Z" fill="#3F3D56"/>
<path id="Vector_10" d="M685.287 738.757C685.287 738.757 686.774 707.599 717.258 711.22L685.287 738.757Z" fill="#3F3D56"/>
<path id="Vector_11" d="M676.673 709.106C685.1 709.106 691.93 702.275 691.93 693.849C691.93 685.423 685.1 678.592 676.673 678.592C668.247 678.592 661.416 685.423 661.416 693.849C661.416 702.275 668.247 709.106 676.673 709.106Z" fill="#6C63FF"/>
<path id="Vector_12" d="M678.497 719.541H674.191V749.688H678.497V719.541Z" fill="#3F3D56"/>
<path id="Vector_13" d="M758.738 744.08C758.738 744.08 760.225 712.921 790.709 716.543L758.738 744.08Z" fill="#3F3D56"/>
<path id="Vector_14" d="M750.124 714.429C758.55 714.429 765.381 707.598 765.381 699.171C765.381 690.745 758.55 683.914 750.124 683.914C741.698 683.914 734.867 690.745 734.867 699.171C734.867 707.598 741.698 714.429 750.124 714.429Z" fill="#6C63FF"/>
<path id="Vector_15" d="M751.948 724.863H747.642V755.01H751.948V724.863Z" fill="#3F3D56"/>
<path id="Vector_16" d="M303.129 718.532C303.129 718.532 304.616 687.373 335.101 690.995L303.129 718.532Z" fill="#3F3D56"/>
<path id="Vector_17" d="M294.516 688.88C302.942 688.88 309.773 682.05 309.773 673.623C309.773 665.197 302.942 658.366 294.516 658.366C286.09 658.366 279.259 665.197 279.259 673.623C279.259 682.05 286.09 688.88 294.516 688.88Z" fill="#6C63FF"/>
<path id="Vector_18" d="M296.34 699.315H292.033V729.462H296.34V699.315Z" fill="#3F3D56"/>
<path id="Vector_19" d="M76.3898 723.854C76.3898 723.854 77.8768 692.696 108.361 696.317L76.3898 723.854Z" fill="#3F3D56"/>
<path id="Vector_20" d="M67.7764 694.203C76.2027 694.203 83.0335 687.372 83.0335 678.946C83.0335 670.52 76.2027 663.689 67.7764 663.689C59.3501 663.689 52.5193 670.52 52.5193 678.946C52.5193 687.372 59.3501 694.203 67.7764 694.203Z" fill="#6C63FF"/>
<path id="Vector_21" d="M69.6005 704.638H65.2938V734.785H69.6005V704.638Z" fill="#3F3D56"/>
<circle id="Ellipse 1" cx="352" cy="182" r="50" fill="#C4C4C4"/>
<path id="Vector_22" d="M521.76 750L502.624 729.719L503.07 750H497.127L496.652 728.555L470.816 750H460L496.459 719.739L495.047 656.196L493.992 608.206L499.92 608L500.99 656.196L502.401 719.682L531 750H521.76Z" fill="#3F3D56"/>
<path id="Vector_23" d="M433.189 750L417.015 729.719L417.392 750H412.382L411.98 728.555L390.142 750H381L411.804 719.739L410.611 656.196L409.719 608.206L414.742 608L415.646 656.196L416.826 719.682L441 750H433.189Z" fill="#3F3D56"/>
</g>
</g>
</g>
<g id="fone2">
<path id="fone2_2" d="M289.25 566.475C282.83 566.475 276.472 565.21 270.541 562.754C264.609 560.297 259.219 556.695 254.679 552.155C250.139 547.615 246.538 542.226 244.081 536.294C241.624 530.362 240.36 524.005 240.36 517.584V493.139C240.36 480.172 245.511 467.737 254.679 458.568C263.848 449.399 276.284 444.248 289.25 444.248V566.475Z" fill="#6C63FF"/>
</g>
<g id="fone1">
<path id="fone1_2" d="M601.303 444.248C607.724 444.248 614.081 445.513 620.013 447.97C625.945 450.427 631.334 454.028 635.874 458.568C640.414 463.108 644.016 468.498 646.473 474.429C648.93 480.361 650.194 486.719 650.194 493.139V517.584C650.194 524.005 648.93 530.362 646.473 536.294C644.016 542.226 640.414 547.615 635.874 552.155C631.334 556.695 625.945 560.296 620.013 562.753C614.081 565.21 607.724 566.475 601.304 566.475V444.248H601.303Z" fill="#6C63FF"/>
</g>
<g id="fiogroup">
<path id="fiofone" d="M626.923 496.98H619.166C619.166 398.603 539.13 318.567 440.752 318.567C342.375 318.567 262.338 398.603 262.338 496.98H254.581C254.581 394.325 338.097 310.81 440.752 310.81C543.408 310.81 626.923 394.326 626.923 496.98Z" fill="#6C63FF"/>
</g>
<g id="nota6">
<path id="nota6_2" d="M174.547 347.473L174.549 347.47L170.904 345.953L155.528 339.452L150.016 337.123L149.593 338.19L142.189 356.884L163.026 365.704L163.136 365.803L161.731 369.114C161.539 369.416 161.375 369.736 161.241 370.069C160.258 372.553 162.116 375.023 163.872 375.718C165.628 376.414 167.849 374.965 168.833 372.481C169.803 370.031 168.855 366.919 167.143 366.167L167.145 366.164L163.501 364.647L151.034 359.8L158.157 341.815L157.101 341.397L149.975 359.389L148.434 358.79L155.588 340.728L155.776 340.807L170.43 347.01L170.539 347.109L169.135 350.42C168.943 350.722 168.779 351.042 168.645 351.375C167.662 353.859 169.519 356.329 171.276 357.024C173.032 357.72 175.253 356.271 176.237 353.787C177.207 351.337 176.259 348.225 174.547 347.473Z" fill="#3F3D56"/>
</g>
<g id="nota5">
<path id="nota5_2" d="M246.667 393.367C239.103 389.043 240.617 379.552 240.617 379.552C240.426 373.387 235.333 374.26 235.333 374.26L233.479 374.683C232.618 374.283 231.669 374.108 230.722 374.173L227.902 374.648C234.324 376.156 233.796 381.528 233.796 381.528L234.696 387.809L217.87 381.021L219.802 376.466C220.069 376.046 220.297 375.602 220.482 375.139C221.848 371.69 219.268 368.259 216.829 367.293C214.39 366.327 211.305 368.34 209.939 371.789C208.591 375.192 209.908 379.514 212.285 380.558L212.283 380.562L217.345 382.67L217.382 382.551L246.667 393.367ZM238.123 382.331L238.662 388.343C236.757 385.67 235.862 382.408 236.137 379.137C236.092 377.973 235.699 376.85 235.01 375.911C236.07 376.591 236.922 377.55 237.471 378.683C238.02 379.816 238.246 381.078 238.123 382.331V382.331Z" fill="#3F3D56"/>
</g>
<g id="nota4">
<path id="nota4_2" d="M118.319 304.456L118.321 304.452L113.259 302.344L92.1049 294.12L97.4441 289.37C98.4886 287.978 100.031 287.043 101.749 286.762C103.467 286.48 105.227 286.874 106.661 287.86L105.004 285.398C105.004 285.398 101.889 281.274 97.5291 285.637C97.5291 285.637 92.1343 293.59 83.6603 291.563L112.601 303.812L112.752 303.95L110.802 308.548C110.535 308.968 110.308 309.413 110.122 309.875C108.756 313.324 111.336 316.755 113.775 317.721C116.214 318.688 119.299 316.674 120.665 313.225C122.013 309.823 120.696 305.5 118.319 304.456Z" fill="#3F3D56"/>
</g>
<g id="nota3">
<path id="nota3_2" d="M195.766 277.541L193.816 282.14C193.549 282.56 193.321 283.004 193.135 283.467C191.769 286.916 194.349 290.347 196.788 291.313C199.228 292.279 202.313 290.266 203.679 286.817C205.026 283.414 203.709 279.092 201.332 278.048L201.334 278.044L196.273 275.936L178.958 269.205L188.851 244.225L187.385 243.644L177.488 268.633L175.347 267.801L185.282 242.714L185.544 242.825L205.897 251.439L206.049 251.577L204.099 256.175C203.832 256.596 203.604 257.04 203.418 257.503C202.052 260.952 204.632 264.383 207.072 265.349C209.511 266.315 212.596 264.302 213.962 260.853C215.309 257.45 213.992 253.128 211.616 252.083L211.618 252.079L206.556 249.972L185.871 241.227L185.87 241.227L185.199 240.943L177.544 237.707L166.674 265.155L195.614 277.404L195.766 277.541Z" fill="#3F3D56"/>
</g>
<g id="nota1">
<path id="nota1_2" d="M59.6627 107.844L59.6662 107.837L50.9531 104.208L14.5368 90.0519L23.728 81.8747C23.728 81.8747 29.8417 73.3919 39.5941 79.2756L36.7421 75.0365C36.7421 75.0365 31.38 67.9376 23.8743 75.4484C23.8743 75.4484 14.5874 89.1392 0 85.6494L49.8189 106.735L50.0804 106.972L46.7234 114.888C46.2638 115.612 45.8717 116.377 45.552 117.172C43.2003 123.11 47.6419 129.017 51.8408 130.68C56.0396 132.343 61.3501 128.877 63.702 122.939C66.0215 117.082 63.7545 109.642 59.6627 107.844Z" fill="#3F3D56"/>
</g>
<g id="nota2">
<path id="nota2_2" d="M130.794 255.885C112.709 245.546 116.328 222.855 116.328 222.855C115.873 208.114 103.694 210.201 103.694 210.201L99.2614 211.213C97.2024 210.257 94.9352 209.838 92.6706 209.994L85.9281 211.128C101.281 214.736 100.02 227.579 100.02 227.579L102.171 242.596L61.9416 226.367L66.5605 215.476C67.1989 214.471 67.7435 213.409 68.1875 212.303C71.4538 204.056 65.2848 195.853 59.4529 193.543C53.621 191.233 46.2454 196.047 42.9791 204.294C39.7573 212.428 42.9059 222.763 48.5889 225.26L48.5841 225.27L60.6859 230.309L60.776 230.024L130.794 255.885ZM110.365 229.499L111.659 243.923C104.063 233.84 105.616 221.861 105.616 221.861C105.509 219.079 104.57 216.393 102.922 214.15C111.647 219.371 110.364 229.499 110.364 229.499H110.365Z" fill="#3F3D56"/>
</g>
</g>
<defs>
<filter id="filter0_d" x="468.889" y="447.996" width="41.6358" height="41.6358" filterUnits="userSpaceOnUse" color-interpolation-filters="sRGB">
<feFlood flood-opacity="0" result="BackgroundImageFix"/>
<feColorMatrix in="SourceAlpha" type="matrix" values="0 0 0 0 0 0 0 0 0 0 0 0 0 0 0 0 0 0 127 0"/>
<feOffset dy="4"/>
<feGaussianBlur stdDeviation="2"/>
<feColorMatrix type="matrix" values="0 0 0 0 0 0 0 0 0 0 0 0 0 0 0 0 0 0 0.25 0"/>
<feBlend mode="normal" in2="BackgroundImageFix" result="effect1_dropShadow"/>
<feBlend mode="normal" in="SourceGraphic" in2="effect1_dropShadow" result="shape"/>
</filter>
<filter id="filter1_d" x="341" y="448" width="41.6358" height="41.6358" filterUnits="userSpaceOnUse" color-interpolation-filters="sRGB">
<feFlood flood-opacity="0" result="BackgroundImageFix"/>
<feColorMatrix in="SourceAlpha" type="matrix" values="0 0 0 0 0 0 0 0 0 0 0 0 0 0 0 0 0 0 127 0"/>
<feOffset dy="4"/>
<feGaussianBlur stdDeviation="2"/>
<feColorMatrix type="matrix" values="0 0 0 0 0 0 0 0 0 0 0 0 0 0 0 0 0 0 0.25 0"/>
<feBlend mode="normal" in2="BackgroundImageFix" result="effect1_dropShadow"/>
<feBlend mode="normal" in="SourceGraphic" in2="effect1_dropShadow" result="shape"/>
</filter>
<clipPath id="clip0">
<rect x="3" width="887.772" height="772.831" fill="white"/>
</clipPath>
</defs>
</svg>
